<svg width="16" height="16" viewBox="0 0 16 16" fill="none" xmlns="http://www.w3.org/2000/svg">
<path d="M1.96938 6.46939L6.46938 1.96939C6.61027 1.82849 6.80137 1.74934 7.00063 1.74934C7.19988 1.74934 7.39098 1.82849 7.53188 1.96939C7.67277 2.11028 7.75193 2.30138 7.75193 2.50064C7.75193 2.6999 7.67277 2.89099 7.53188 3.03189L4.3125 6.25001L13.5 6.25001C13.6989 6.25001 13.8897 6.32903 14.0303 6.46968C14.171 6.61034 14.25 6.8011 14.25 7.00001C14.25 7.19893 14.171 7.38969 14.0303 7.53034C13.8897 7.671 13.6989 7.75001 13.5 7.75001L4.3125 7.75001L7.53063 10.97C7.67152 11.1109 7.75068 11.302 7.75068 11.5013C7.75068 11.7005 7.67152 11.8916 7.53063 12.0325C7.38973 12.1734 7.19863 12.2526 6.99938 12.2526C6.80012 12.2526 6.60902 12.1734 6.46813 12.0325L1.96813 7.53251C1.89819 7.46274 1.84273 7.37984 1.80493 7.28858C1.76713 7.19731 1.74773 7.09948 1.74785 7.00069C1.74796 6.90191 1.76759 6.80412 1.80561 6.71294C1.84363 6.62176 1.89928 6.53899 1.96938 6.46939Z" fill="#222222"/>
</svg>
