<svg width="16" height="16" viewBox="0 0 16 16" fill="none" xmlns="http://www.w3.org/2000/svg">
<path d="M14.0306 9.53061L9.53062 14.0306C9.38973 14.1715 9.19863 14.2507 8.99937 14.2507C8.80012 14.2507 8.60902 14.1715 8.46812 14.0306C8.32723 13.8897 8.24807 13.6986 8.24807 13.4994C8.24807 13.3001 8.32723 13.109 8.46812 12.9681L11.6875 9.74999H2.5C2.30109 9.74999 2.11032 9.67097 1.96967 9.53032C1.82902 9.38966 1.75 9.1989 1.75 8.99999C1.75 8.80107 1.82902 8.61031 1.96967 8.46966C2.11032 8.329 2.30109 8.24999 2.5 8.24999H11.6875L8.46937 5.02999C8.32848 4.88909 8.24932 4.69799 8.24932 4.49874C8.24932 4.29948 8.32848 4.10838 8.46937 3.96749C8.61027 3.82659 8.80137 3.74744 9.00062 3.74744C9.19988 3.74744 9.39098 3.82659 9.53187 3.96749L14.0319 8.46749C14.1018 8.53726 14.1573 8.62016 14.1951 8.71142C14.2329 8.80269 14.2523 8.90052 14.2522 8.99931C14.252 9.09809 14.2324 9.19588 14.1944 9.28706C14.1564 9.37824 14.1007 9.46101 14.0306 9.53061Z" fill="#222222"/>
</svg>
