<svg width="412" height="256" viewBox="0 0 412 256" fill="none" xmlns="http://www.w3.org/2000/svg">
<g clip-path="url(#clip0_59_1214)">
<path d="M111.107 157.79C111.107 157.79 90.7198 103.923 135.424 87.4917C180.129 71.0607 195.006 134.269 195.006 134.269" stroke="#E6E2EE" stroke-width="9" stroke-miterlimit="10"/>
<path d="M223.242 138.752C183.191 104.155 156.41 158.487 156.41 158.487C155.345 157.835 105.162 126.562 89.083 176.372C71.6004 230.552 182.049 247.266 182.049 247.266C183.077 246.05 266.033 175.719 223.242 138.752Z" fill="#826AAB"/>
<path d="M171.761 189.4C170.808 185.999 167.296 184.023 163.897 184.975C160.498 185.927 158.524 189.44 159.476 192.84C160.124 195.155 161.971 196.781 164.173 197.313L167.958 219.182L178.195 216.315L170.07 195.661C171.661 194.089 172.415 191.735 171.761 189.4Z" fill="white"/>
<path fill-rule="evenodd" clip-rule="evenodd" d="M386.139 54.1753L373.469 41.0731L362.066 56.6233L366.962 61.6507L342.12 68.0958L344.093 38.0287L349.528 43.5968L364.913 22.6149L356.68 23.8675L345.689 12.726L329.519 34.778C308.992 66.8818 346.806 103.337 369.718 76.6264L386.139 54.1753Z" fill="#826AAB"/>
<path d="M295.1 138.73C292.731 141.901 290.337 145.059 287.979 148.204C286.581 150.056 285.171 151.933 283.772 153.785C281.889 156.296 280.005 158.807 278.121 161.318C273.313 157.741 268.491 154.127 263.707 150.499C261.32 148.673 258.933 146.846 256.666 144.892C258.773 142.028 260.981 139.209 263.252 136.45C267.444 140.11 271.648 143.744 275.911 147.315C277.431 145.397 278.951 143.479 280.46 141.587C277.668 139.118 274.852 136.638 272.072 134.144C274.725 131.348 277.315 128.492 279.841 125.577L287.738 132.367C303.248 112.846 318.922 93.431 334.774 74.1584L342.094 76.2431C326.441 97.0677 310.764 117.881 295.112 138.705L295.1 138.73Z" fill="#826AAB"/>
<g clip-path="url(#clip1_59_1214)">
<path d="M17.1964 65.3284C16.5569 39.5648 43.3469 50.2777 43.3469 50.2777C43.4204 49.7019 46.8635 21.7447 68.9929 34.3828C93.08 48.1427 67.187 90.8218 67.187 90.8218C66.4656 90.7209 17.8592 92.8783 17.1964 65.3284Z" fill="#FE9BBE"/>
</g>
<g clip-path="url(#clip2_59_1214)">
<path d="M324.54 128.803C338.542 129.786 331.352 143.758 331.352 143.758C331.66 143.828 346.641 147.137 338.647 158.484C329.943 170.834 308.139 154.592 308.139 154.592C308.231 154.207 309.569 127.741 324.54 128.803Z" fill="#FE9BBE"/>
</g>
<g clip-path="url(#clip3_59_1214)">
<path d="M225.912 103.699C230.4 98.8351 233.423 105.599 233.423 105.599C233.54 105.506 239.172 100.968 240.992 107.254C242.973 114.097 230.57 117.336 230.57 117.336C230.455 117.188 221.108 108.896 225.912 103.699Z" fill="#FE9BBE"/>
</g>
</g>
<defs>
<clipPath id="clip0_59_1214">
<rect width="412" height="256" fill="white"/>
</clipPath>
<clipPath id="clip1_59_1214">
<rect width="65.5937" height="57.3945" fill="white" transform="translate(9.87793 58.2031) rotate(-30.856)"/>
</clipPath>
<clipPath id="clip2_59_1214">
<rect width="35.7252" height="31.2595" fill="white" transform="translate(328.781 125.203) rotate(64.5799)"/>
</clipPath>
<clipPath id="clip3_59_1214">
<rect width="16.8443" height="14.7387" fill="white" transform="translate(225.836 101.077) rotate(13.2649)"/>
</clipPath>
</defs>
</svg>
