<svg width="11" height="12" viewBox="0 0 11 12" fill="none" xmlns="http://www.w3.org/2000/svg">
<path d="M9.82687 5.48649L5.91513 9.33041C5.86062 9.38417 5.79585 9.42682 5.72452 9.45592C5.6532 9.48502 5.57674 9.5 5.49951 9.5C5.42228 9.5 5.34582 9.48502 5.2745 9.45592C5.20318 9.42682 5.1384 9.38417 5.08389 9.33041L1.17216 5.48649C1.06193 5.37817 1 5.23126 1 5.07807C1 4.92488 1.06193 4.77797 1.17216 4.66965C1.28239 4.56133 1.43189 4.50048 1.58778 4.50048C1.74367 4.50048 1.89317 4.56133 2.0034 4.66965L5.5 8.10564L8.9966 4.66917C9.10683 4.56085 9.25633 4.5 9.41222 4.5C9.56811 4.5 9.71761 4.56085 9.82784 4.66917C9.93807 4.77749 10 4.9244 10 5.07759C10 5.23078 9.93807 5.37769 9.82784 5.48601L9.82687 5.48649Z" fill="#222222"/>
</svg>
