<svg width="11" height="12" viewBox="0 0 11 12" fill="none" xmlns="http://www.w3.org/2000/svg">
<path d="M1.17313 6.51351L5.08487 2.66959C5.13938 2.61583 5.20415 2.57318 5.27548 2.54408C5.3468 2.51498 5.42326 2.5 5.50049 2.5C5.57772 2.5 5.65418 2.51498 5.7255 2.54408C5.79682 2.57318 5.8616 2.61583 5.91611 2.66959L9.82784 6.51351C9.93807 6.62183 10 6.76874 10 6.92193C10 7.07512 9.93807 7.22203 9.82784 7.33035C9.71761 7.43867 9.56811 7.49952 9.41222 7.49952C9.25633 7.49952 9.10683 7.43867 8.9966 7.33035L5.5 3.89436L2.0034 7.33083C1.89317 7.43915 1.74367 7.5 1.58778 7.5C1.43189 7.5 1.28239 7.43915 1.17216 7.33083C1.06193 7.22251 1 7.0756 1 6.92241C1 6.76922 1.06193 6.62231 1.17216 6.51399L1.17313 6.51351Z" fill="#222222"/>
</svg>
