<svg width="32" height="32" viewBox="0 0 32 32" fill="none" xmlns="http://www.w3.org/2000/svg">
<path d="M16.2 10.2C15.0133 10.2 13.8532 10.5518 12.8665 11.2111C11.8798 11.8704 11.1108 12.8075 10.6567 13.9039C10.2025 15.0002 10.0837 16.2066 10.3152 17.3705C10.5468 18.5344 11.1182 19.6035 11.9573 20.4426C12.7964 21.2817 13.8655 21.8532 15.0294 22.0847C16.1933 22.3162 17.3997 22.1974 18.4961 21.7432C19.5924 21.2891 20.5295 20.5201 21.1888 19.5334C21.8481 18.5467 22.2 17.3866 22.2 16.2C22.1983 14.6092 21.5656 13.084 20.4408 11.9591C19.3159 10.8343 17.7907 10.2016 16.2 10.2ZM16.2 20.2C15.4088 20.2 14.6355 19.9654 13.9777 19.5258C13.3199 19.0863 12.8072 18.4616 12.5044 17.7307C12.2017 16.9998 12.1225 16.1955 12.2768 15.4196C12.4312 14.6437 12.8121 13.9309 13.3715 13.3715C13.9309 12.8121 14.6437 12.4312 15.4196 12.2768C16.1955 12.1225 16.9998 12.2017 17.7307 12.5044C18.4616 12.8072 19.0863 13.3199 19.5258 13.9777C19.9654 14.6355 20.2 15.4088 20.2 16.2C20.2 17.2608 19.7785 18.2782 19.0284 19.0284C18.2782 19.7785 17.2608 20.2 16.2 20.2ZM22.2 3.19995H10.2C8.34405 3.20194 6.56472 3.94007 5.2524 5.2524C3.94007 6.56472 3.20194 8.34405 3.19995 10.2V22.2C3.20194 24.0559 3.94007 25.8352 5.2524 27.1475C6.56472 28.4598 8.34405 29.198 10.2 29.2H22.2C24.0559 29.198 25.8352 28.4598 27.1475 27.1475C28.4598 25.8352 29.198 24.0559 29.2 22.2V10.2C29.198 8.34405 28.4598 6.56472 27.1475 5.2524C25.8352 3.94007 24.0559 3.20194 22.2 3.19995ZM27.2 22.2C27.2 23.526 26.6732 24.7978 25.7355 25.7355C24.7978 26.6732 23.526 27.2 22.2 27.2H10.2C8.87387 27.2 7.6021 26.6732 6.66442 25.7355C5.72674 24.7978 5.19995 23.526 5.19995 22.2V10.2C5.19995 8.87387 5.72674 7.6021 6.66442 6.66442C7.6021 5.72674 8.87387 5.19995 10.2 5.19995H22.2C23.526 5.19995 24.7978 5.72674 25.7355 6.66442C26.6732 7.6021 27.2 8.87387 27.2 10.2V22.2ZM24.2 9.69995C24.2 9.99662 24.112 10.2866 23.9472 10.5333C23.7823 10.78 23.5481 10.9722 23.274 11.0858C22.9999 11.1993 22.6983 11.229 22.4073 11.1711C22.1163 11.1133 21.8491 10.9704 21.6393 10.7606C21.4295 10.5508 21.2867 10.2836 21.2288 9.99259C21.1709 9.70162 21.2006 9.40002 21.3141 9.12593C21.4277 8.85184 21.6199 8.61757 21.8666 8.45275C22.1133 8.28792 22.4033 8.19995 22.7 8.19995C23.0978 8.19995 23.4793 8.35799 23.7606 8.63929C24.0419 8.9206 24.2 9.30213 24.2 9.69995Z" fill="#826AAB"/>
</svg>
