<svg width="89" height="88" viewBox="0 0 89 88" fill="none" xmlns="http://www.w3.org/2000/svg">
<path d="M81.9273 9.00279C81.5012 8.63487 80.9828 8.39018 80.428 8.29508C79.8731 8.19998 79.3028 8.25807 78.7785 8.4631L9.11414 35.7259C8.12684 36.1098 7.29098 36.8041 6.73238 37.7042C6.17379 38.6042 5.92271 39.6614 6.01694 40.7165C6.11117 41.7717 6.54561 42.7676 7.25485 43.5545C7.96409 44.3413 8.90975 44.8765 9.94946 45.0794L27.9998 48.6234V68.75C27.9962 69.8463 28.322 70.9183 28.9349 71.8273C29.5478 72.7362 30.4196 73.4401 31.4373 73.8478C32.4534 74.2627 33.5708 74.3623 34.6443 74.1336C35.7177 73.905 36.6976 73.3586 37.4563 72.5656L46.1601 63.5387L59.9685 75.625C60.9648 76.5087 62.2497 76.9977 63.5813 77C64.1649 76.9995 64.7448 76.9079 65.3001 76.7284C66.2074 76.4405 67.0235 75.9199 67.667 75.2185C68.3105 74.5171 68.759 73.6593 68.9679 72.7306L82.9207 12.0312C83.0455 11.4838 83.019 10.9127 82.844 10.3792C82.669 9.84574 82.3521 9.36992 81.9273 9.00279ZM60.9104 21.3778L30.1138 43.4328L13.0638 40.0881L60.9104 21.3778ZM33.4998 68.75V52.4287L42.0213 59.9019L33.4998 68.75ZM63.5882 71.5L35.167 46.5781L76.0732 17.2597L63.5882 71.5Z" fill="#826AAB"/>
</svg>
