<svg width="89" height="88" viewBox="0 0 89 88" fill="none" xmlns="http://www.w3.org/2000/svg">
<path d="M44.4998 24.75C45.2292 24.75 45.9286 25.0398 46.4444 25.5555C46.9601 26.0712 47.2498 26.7707 47.2498 27.5V46.75C47.2498 47.4794 46.9601 48.1789 46.4444 48.6946C45.9286 49.2103 45.2292 49.5 44.4998 49.5C43.7705 49.5 43.071 49.2103 42.5553 48.6946C42.0395 48.1789 41.7498 47.4794 41.7498 46.75V27.5C41.7498 26.7707 42.0395 26.0712 42.5553 25.5555C43.071 25.0398 43.7705 24.75 44.4998 24.75ZM40.3748 59.125C40.3748 59.9409 40.6167 60.7384 41.07 61.4168C41.5233 62.0951 42.1675 62.6238 42.9212 62.936C43.675 63.2483 44.5044 63.33 45.3046 63.1708C46.1047 63.0116 46.8397 62.6188 47.4166 62.0419C47.9935 61.465 48.3864 60.73 48.5456 59.9298C48.7047 59.1296 48.623 58.3002 48.3108 57.5465C47.9986 56.7927 47.4699 56.1485 46.7915 55.6952C46.1132 55.242 45.3157 55 44.4998 55C43.4058 55 42.3566 55.4347 41.583 56.2082C40.8094 56.9818 40.3748 58.031 40.3748 59.125ZM82.9998 44C83.0018 44.7204 82.861 45.434 82.5855 46.0996C82.3099 46.7651 81.9051 47.3694 81.3945 47.8775L48.3773 80.8982C47.3468 81.9225 45.9528 82.4975 44.4998 82.4975C43.0468 82.4975 41.6528 81.9225 40.6223 80.8982L7.62231 47.8775C6.59793 46.8471 6.02295 45.4531 6.02295 44C6.02295 42.547 6.59793 41.153 7.62231 40.1225L40.6395 7.10192C41.67 6.07754 43.064 5.50256 44.517 5.50256C45.97 5.50256 47.364 6.07754 48.3945 7.10192L81.4117 40.1225C81.9192 40.6321 82.3208 41.237 82.5934 41.9025C82.866 42.568 83.0041 43.2809 82.9998 44ZM77.4998 44L44.4998 11L11.4998 44L44.4998 77L77.4998 44Z" fill="#EB5757"/>
</svg>
