<svg width="84" height="84" viewBox="0 0 84 84" fill="none" xmlns="http://www.w3.org/2000/svg">
<rect width="84" height="84" rx="42" fill="white"/>
<path d="M55.0587 29.1994C55.256 29.1994 55.4452 29.121 55.5848 28.9815C55.7243 28.8419 55.8027 28.6527 55.8027 28.4554V20.6009C55.8015 19.5931 55.4006 18.627 54.688 17.9145C53.9753 17.2019 53.0092 16.8011 52.0014 16.8H29.0014C27.9936 16.8012 27.0275 17.2019 26.3149 17.9145C25.6023 18.627 25.2014 19.5931 25.2002 20.6009V63.3992C25.2014 64.407 25.6023 65.3731 26.3149 66.0856C27.0275 66.7982 27.9937 67.199 29.0014 67.2001H52.0014C53.0092 67.199 53.9753 66.7982 54.6879 66.0856C55.4006 65.3731 55.8014 64.407 55.8026 63.3992V47.9627C55.8026 47.7654 55.7243 47.5762 55.5847 47.4366C55.4452 47.2971 55.256 47.2187 55.0587 47.2187C54.8614 47.2187 54.6721 47.2971 54.5326 47.4366C54.3931 47.5762 54.3147 47.7654 54.3147 47.9627V55.309H26.6881V22.9461H54.3147V28.4554C54.3147 28.5531 54.334 28.6498 54.3714 28.7401C54.4087 28.8304 54.4635 28.9124 54.5326 28.9814C54.6017 29.0505 54.6837 29.1053 54.774 29.1427C54.8643 29.1801 54.961 29.1994 55.0587 29.1994ZM54.3147 56.7969V63.3992C54.314 64.0125 54.07 64.6004 53.6363 65.034C53.2027 65.4676 52.6147 65.7115 52.0014 65.7121H29.0014C28.3881 65.7115 27.8002 65.4676 27.3665 65.034C26.9328 64.6004 26.6889 64.0125 26.6881 63.3992V56.7969H54.3147ZM26.6881 21.4582V20.6009C26.6889 19.9876 26.9328 19.3997 27.3665 18.9661C27.8002 18.5325 28.3881 18.2886 29.0014 18.288H52.0014C52.6147 18.2886 53.2026 18.5325 53.6363 18.9661C54.07 19.3997 54.314 19.9876 54.3147 20.6009V21.4582H26.6881Z" fill="#5955A4"/>
<path d="M43.2198 18.9836H37.785C37.5877 18.9836 37.3984 19.062 37.2589 19.2015C37.1194 19.3411 37.041 19.5303 37.041 19.7276C37.041 19.9249 37.1194 20.1142 37.2589 20.2537C37.3984 20.3932 37.5877 20.4716 37.785 20.4716H43.2198C43.4171 20.4716 43.6063 20.3932 43.7458 20.2537C43.8854 20.1142 43.9637 19.9249 43.9637 19.7276C43.9637 19.5303 43.8854 19.3411 43.7458 19.2015C43.6063 19.062 43.4171 18.9836 43.2198 18.9836Z" fill="#5955A4"/>
<path d="M40.5009 64.7931C41.1663 64.7931 41.8167 64.5958 42.37 64.2261C42.9232 63.8565 43.3544 63.3311 43.609 62.7163C43.8637 62.1016 43.9303 61.4252 43.8005 60.7726C43.6707 60.12 43.3503 59.5205 42.8798 59.0501C42.4093 58.5796 41.8098 58.2592 41.1572 58.1293C40.5047 57.9995 39.8282 58.0662 39.2135 58.3208C38.5988 58.5754 38.0734 59.0066 37.7037 59.5599C37.334 60.1131 37.1367 60.7635 37.1367 61.4289C37.1377 62.3208 37.4925 63.1759 38.1232 63.8066C38.7539 64.4373 39.609 64.7921 40.5009 64.7931ZM40.5009 59.5527C40.872 59.5527 41.2348 59.6627 41.5433 59.8689C41.8519 60.075 42.0924 60.3681 42.2344 60.7109C42.3764 61.0538 42.4135 61.431 42.3412 61.795C42.2688 62.159 42.0901 62.4933 41.8277 62.7557C41.5653 63.0181 41.2309 63.1968 40.867 63.2692C40.503 63.3416 40.1257 63.3044 39.7829 63.1624C39.4401 63.0204 39.147 62.7799 38.9409 62.4714C38.7347 62.1628 38.6246 61.8 38.6246 61.4289C38.6252 60.9315 38.8231 60.4546 39.1748 60.1029C39.5266 59.7511 40.0035 59.5532 40.5009 59.5527Z" fill="#5955A4"/>
<path d="M67.5197 43.8862V31.8037C67.5197 31.6063 67.4413 31.4171 67.3018 31.2776C67.1623 31.1381 66.9731 31.0597 66.7758 31.0597H43.3387C43.1414 31.0597 42.9521 31.1381 42.8126 31.2776C42.6731 31.4171 42.5947 31.6063 42.5947 31.8037V43.8862C42.5947 44.0835 42.6731 44.2727 42.8126 44.4123C42.9521 44.5518 43.1414 44.6302 43.3387 44.6302H46.5848L48.298 47.5977C48.3633 47.7108 48.4573 47.8047 48.5704 47.87C48.6835 47.9353 48.8118 47.9696 48.9424 47.9696C49.073 47.9696 49.2014 47.9353 49.3145 47.87C49.4276 47.8047 49.5215 47.7108 49.5869 47.5977L51.3004 44.6302H66.7758C66.9731 44.6302 67.1623 44.5518 67.3018 44.4123C67.4413 44.2727 67.5197 44.0835 67.5197 43.8862ZM66.0318 43.1422H50.871C50.7403 43.1422 50.612 43.1765 50.4989 43.2418C50.3858 43.3071 50.2918 43.4011 50.2265 43.5142L48.9424 45.7381L47.6586 43.5142C47.5933 43.4011 47.4994 43.3071 47.3863 43.2418C47.2731 43.1765 47.1448 43.1422 47.0142 43.1422H44.0827V32.5476H66.0318V43.1422Z" fill="#5955A4"/>
</svg>
