<svg width="84" height="84" viewBox="0 0 84 84" fill="none" xmlns="http://www.w3.org/2000/svg">
<rect width="84" height="84" rx="42" fill="white"/>
<path d="M58.7584 27.2999H51.2364V24.5945C51.2364 21.4546 48.6817 18.8999 45.5418 18.8999H38.4511C35.3112 18.8999 32.7564 21.4546 32.7564 24.5945V27.2999H25.2412C20.5871 27.2999 16.7998 31.0872 16.7998 35.7419V55.4371C16.7998 60.0918 20.5871 63.8791 25.2412 63.8791H58.7584C63.4125 63.8791 67.1998 60.0918 67.1998 55.4371V35.7419C67.1998 31.0872 63.4125 27.2999 58.7584 27.2999ZM34.4364 24.5945C34.4364 22.3809 36.2374 20.5799 38.4511 20.5799H45.5418C47.7555 20.5799 49.5564 22.3809 49.5564 24.5945V27.2999H34.4364V24.5945ZM65.5198 55.4371C65.5198 59.1656 62.4868 62.1991 58.7584 62.1991H25.2412C21.5128 62.1991 18.4798 59.1656 18.4798 55.4371V35.7419C18.4798 32.0134 21.5128 28.9799 25.2412 28.9799H58.7584C62.4868 28.9799 65.5198 32.0134 65.5198 35.7419V55.4371Z" fill="#5955A4"/>
<path d="M46.7284 55.2988C45.25 56.0201 43.6602 56.3858 42.0014 56.3858C39.0491 56.3858 36.2922 55.2165 34.2387 53.093C33.9167 52.7586 33.3853 52.7502 33.051 53.0728C32.7172 53.3954 32.7088 53.9268 33.0314 54.2606C35.4035 56.715 38.5894 58.0663 42.0014 58.0663C43.9172 58.0663 45.7557 57.6435 47.4659 56.8091C47.8826 56.6058 48.0556 56.103 47.8518 55.6858C47.6479 55.2686 47.1462 55.0961 46.7284 55.2988Z" fill="#5955A4"/>
<path d="M31.2044 45.5898C31.2044 41.8064 33.1319 38.3635 36.3609 36.3817C36.7563 36.1386 36.88 35.6218 36.637 35.2264C36.3939 34.831 35.8776 34.7073 35.4817 34.9498C31.7515 37.2402 29.5244 41.2173 29.5244 45.5898C29.5244 47.4562 29.9265 49.2516 30.72 50.926C30.8634 51.2295 31.1652 51.4065 31.4794 51.4065C31.5998 51.4065 31.7224 51.3802 31.8389 51.3253C32.2578 51.127 32.4364 50.6258 32.2382 50.2064C31.5522 48.7588 31.2044 47.2054 31.2044 45.5898Z" fill="#5955A4"/>
<path d="M42.0003 33.1125C40.7565 33.1125 39.5279 33.2951 38.3485 33.6557C37.905 33.7913 37.6553 34.2611 37.7908 34.7046C37.9263 35.1481 38.3956 35.3968 38.8397 35.2624C39.8594 34.9505 40.9229 34.7925 42.0003 34.7925C47.9536 34.7925 52.7965 39.636 52.7965 45.5893C52.7965 48.0797 51.9728 50.4193 50.4149 52.3553C50.1237 52.7165 50.1808 53.2451 50.5425 53.5363C50.6976 53.6612 50.8836 53.7222 51.0684 53.7222C51.3136 53.7222 51.5572 53.6153 51.723 53.4086C53.4988 51.2033 54.4765 48.4263 54.4765 45.5893C54.4765 38.7097 48.8799 33.1125 42.0003 33.1125Z" fill="#5955A4"/>
<path d="M48.7214 42.4703H45.1139V38.8695C45.1139 38.4053 44.7376 38.0295 44.2739 38.0295H39.7228C39.2591 38.0295 38.8828 38.4053 38.8828 38.8695V42.4703H35.2814C34.8177 42.4703 34.4414 42.8461 34.4414 43.3103V47.862C34.4414 48.3263 34.8177 48.702 35.2814 48.702H38.8828V52.3096C38.8828 52.7738 39.2591 53.1496 39.7228 53.1496H44.2739C44.7376 53.1496 45.1139 52.7738 45.1139 52.3096V48.702H48.7214C49.1851 48.702 49.5614 48.3263 49.5614 47.862V43.3103C49.5614 42.8467 49.1851 42.4703 48.7214 42.4703ZM47.8814 47.022H44.2739C43.8102 47.022 43.4339 47.3978 43.4339 47.862V51.4695H40.5628V47.862C40.5628 47.3978 40.1864 47.022 39.7228 47.022H36.1214V44.1503H39.7228C40.1864 44.1503 40.5628 43.7746 40.5628 43.3103V39.7095H43.4339V43.3103C43.4339 43.7746 43.8102 44.1503 44.2739 44.1503H47.8814V47.022Z" fill="#5955A4"/>
</svg>
