<svg width="84" height="84" viewBox="0 0 84 84" fill="none" xmlns="http://www.w3.org/2000/svg">
<rect width="84" height="84" rx="42" fill="white"/>
<path d="M58.3996 43.6732C58.4176 44.7649 58.4104 45.8638 58.3735 46.933C58.3186 48.5593 58.1908 50.1262 57.9523 51.5698L57.8758 52.0018C58.8937 51.9136 59.809 51.4672 60.4903 50.7859C61.2562 50.0173 61.7278 48.9625 61.7278 47.7979C61.7278 46.6405 61.2625 45.5857 60.5047 44.8243C59.9413 44.2519 59.2123 43.8424 58.3996 43.6732ZM25.0843 40.9048C25.1356 39.9598 25.1941 38.7493 25.2418 38.1544C25.267 37.8412 25.447 37.5793 25.699 37.4362C30.3943 34.3051 36.0265 32.5546 41.6776 32.5546C47.3251 32.5546 52.9573 34.3051 57.6562 37.4362C57.9091 37.5793 58.0882 37.8412 58.1143 38.1544C58.162 38.7493 58.2169 39.9598 58.2682 40.9048C60.1762 40.3225 61.7395 39.5719 62.8528 38.6179C64.0687 37.5739 64.75 36.2572 64.75 34.6075C64.75 31.0957 61.8457 26.8252 57.2278 23.5717C53.1148 20.6709 47.6617 18.6072 41.6776 18.6072C35.6971 18.6072 30.2404 20.6709 26.1319 23.5717C21.5104 26.8252 18.6097 31.0957 18.6097 34.6075C18.6097 36.2572 19.2874 37.5739 20.5069 38.6179C21.6193 39.5719 23.1799 40.3225 25.0843 40.9048ZM56.4475 40.5385L56.3485 38.7331C52.0051 35.9242 46.8562 34.3627 41.6776 34.3627C36.499 34.3627 31.3501 35.9242 27.0067 38.7331L26.9077 40.5385C28.9219 39.5674 31.09 38.7619 33.376 38.1778C36.0049 37.5037 38.7958 37.123 41.6785 37.123C44.5612 37.123 47.3476 37.5037 49.981 38.1778C52.2616 38.761 54.4333 39.5683 56.4475 40.5385ZM56.5978 43.5274C54.5476 44.5381 52.3354 45.3733 49.9981 45.9736C47.3575 46.6549 44.5603 47.0428 41.6776 47.0428C38.7958 47.0428 36.0013 46.6549 33.3571 45.9736C31.0243 45.3733 28.8085 44.5381 26.761 43.5274C26.7421 44.6551 26.7466 45.7837 26.7826 46.8826C26.8339 48.4279 26.9581 49.9219 27.1813 51.2773C27.7969 55.0276 29.8075 58.6168 32.5246 61.2385C35.14 63.7648 38.3998 65.3911 41.6776 65.3911C44.9554 65.3911 48.2152 63.7648 50.8297 61.2385C53.5477 58.6159 55.5574 55.0276 56.1766 51.2773C56.3998 49.9228 56.5204 48.4279 56.5717 46.8826C56.6122 45.7837 56.6158 44.6551 56.5978 43.5274ZM23.4652 42.2602C21.8101 41.6599 20.4106 40.912 19.3306 39.9859C17.7079 38.5945 16.7998 36.8296 16.7998 34.6075C16.7998 30.526 20.0011 25.6849 25.0915 22.0956C29.479 19.0014 35.2984 16.8 41.6776 16.8C48.0568 16.8 53.8771 19.0014 58.2637 22.0956C63.3541 25.6849 66.5554 30.5269 66.5554 34.6075C66.5554 36.8287 65.6473 38.5945 64.0246 39.9859C62.9482 40.9129 61.5496 41.6599 59.8936 42.2602C60.6037 42.568 61.2445 43.0144 61.7836 43.5562C62.8681 44.6407 63.5377 46.1419 63.5377 47.797C63.5377 49.4665 62.86 50.9686 61.7728 52.0603C60.682 53.1511 59.1727 53.8252 57.5059 53.8252H57.4258C56.4331 57.1219 54.5143 60.19 52.0825 62.5345C49.1485 65.3767 45.4459 67.2001 41.6776 67.2001C37.9129 67.2001 34.2067 65.3767 31.2727 62.5345C28.8409 60.1837 26.9221 57.1219 25.9294 53.8252H25.8493C24.1825 53.8252 22.6741 53.1511 21.5824 52.0603C20.4952 50.9686 19.8175 49.4674 19.8175 47.797C19.8175 46.1491 20.488 44.647 21.568 43.5562C22.1098 43.0144 22.747 42.568 23.4652 42.2602ZM25.4794 52.0018L25.4029 51.5698C25.1689 50.1262 25.0402 48.5593 24.9817 46.933C24.9448 45.8638 24.9448 44.7649 24.9601 43.6669C24.1474 43.8424 23.4148 44.2528 22.8505 44.8243C22.0963 45.5866 21.6274 46.6414 21.6274 47.7979C21.6274 48.9625 22.1035 50.0173 22.8649 50.7859C23.5462 51.4672 24.4615 51.9136 25.4794 52.0018ZM55.4737 42.0694C53.6206 41.1982 51.6289 40.4656 49.5373 39.931C47.047 39.292 44.41 38.9311 41.6785 38.9311C38.9506 38.9311 36.31 39.292 33.8224 39.931C31.7281 40.4656 29.7355 41.1982 27.886 42.0694C29.7355 42.9559 31.7209 43.6957 33.8008 44.2303C36.2911 44.8747 38.9353 45.2338 41.6785 45.2338C44.4253 45.2338 47.0695 44.8675 49.5562 44.2303C51.6388 43.6957 53.6233 42.9559 55.4737 42.0694Z" fill="#5955A4"/>
</svg>
