<svg width="84" height="84" viewBox="0 0 84 84" fill="none" xmlns="http://www.w3.org/2000/svg">
<rect width="84" height="84" rx="42" fill="white"/>
<path d="M43.0078 18.8372V17.808C43.0078 17.2516 42.5562 16.8 41.9998 16.8C41.4434 16.8 40.9918 17.2516 40.9918 17.808V18.8382C27.5622 19.2838 16.7998 28.5957 16.7998 39.9841C16.7998 40.5405 17.2514 40.9921 17.8078 40.9921H18.1596C18.586 40.9921 18.967 40.7229 19.1101 40.3207C19.8218 38.3108 21.7289 36.9601 23.8558 36.9601C25.5472 36.9601 27.1167 37.8037 28.0561 39.218C28.4301 39.7814 29.3615 39.7814 29.7355 39.218C30.6749 37.8048 32.2444 36.9601 33.9358 36.9601C36.0627 36.9601 37.9698 38.3098 38.6815 40.3197C38.8246 40.7229 39.2056 40.9921 39.632 40.9921H40.9918V62.1601C40.9918 63.8273 39.635 65.1841 37.9678 65.1841C36.3006 65.1841 34.9438 63.8273 34.9438 62.1601C34.9438 61.6026 34.4922 61.1521 33.9358 61.1521C33.3794 61.1521 32.9278 61.6026 32.9278 62.1601C32.9278 64.9391 35.1887 67.2001 37.9678 67.2001C40.7469 67.2001 43.0078 64.9391 43.0078 62.1601V40.9921H44.3676C44.795 40.9921 45.175 40.7229 45.3171 40.3207C46.0298 38.3108 47.9369 36.9601 50.0638 36.9601C51.7552 36.9601 53.3257 37.8037 54.2641 39.218C54.6381 39.7804 55.5695 39.7804 55.9435 39.218C56.8819 37.8048 58.4524 36.9601 60.1438 36.9601C62.2707 36.9601 64.1778 38.3108 64.8905 40.3197C65.0336 40.7229 65.4136 40.9921 65.84 40.9921H66.1918C66.7492 40.9921 67.1998 40.5405 67.1998 39.9841C67.1998 28.5957 56.4364 19.2838 43.0078 18.8372ZM60.1438 34.9441C58.2256 34.9441 56.4192 35.7192 55.1038 37.0639C53.7884 35.7192 51.982 34.9441 50.0638 34.9441C47.3281 34.9441 44.8524 36.5377 43.6953 38.9761H40.3054C39.1472 36.5377 36.6715 34.9441 33.9368 34.9441C32.0186 34.9441 30.2123 35.7192 28.8968 37.0639C27.5804 35.7192 25.774 34.9441 23.8558 34.9441C22.0797 34.9441 20.4125 35.6164 19.1454 36.7544C21.0082 27.7268 30.5479 20.832 41.9998 20.832C53.4517 20.832 62.9904 27.7268 64.8542 36.7554C63.5861 35.6164 61.9199 34.9441 60.1438 34.9441Z" fill="#5955A4"/>
</svg>
