<svg width="140" height="19" viewBox="0 0 140 19" fill="none" xmlns="http://www.w3.org/2000/svg">
<g clip-path="url(#clip0)">
<path d="M0 9.1388C0 8.34142 0.151614 7.54716 0.454843 6.75601C0.758072 5.96486 1.20028 5.25781 1.78147 4.63486C2.36266 4.01191 3.07019 3.50732 3.90407 3.12109C4.73795 2.73486 5.68554 2.54175 6.74684 2.54175C8.01029 2.54175 9.10633 2.80962 10.035 3.34535C10.9636 3.88109 11.6554 4.5788 12.1102 5.43847L9.72227 7.08306C9.57065 6.73421 9.37798 6.44454 9.14424 6.21404C8.9105 5.98355 8.65465 5.79667 8.37669 5.65339C8.09873 5.51011 7.81445 5.41044 7.52386 5.35437C7.23327 5.29831 6.94899 5.27027 6.67103 5.27027C6.07721 5.27027 5.55919 5.38863 5.11698 5.62535C4.67478 5.86208 4.30837 6.16732 4.01778 6.54109C3.72719 6.91486 3.5124 7.33847 3.37342 7.81191C3.23444 8.28535 3.16495 8.76503 3.16495 9.25093C3.16495 9.77421 3.24707 10.2788 3.41132 10.7647C3.57557 11.2506 3.81247 11.6804 4.12201 12.0542C4.43156 12.428 4.80428 12.7239 5.24017 12.9419C5.67606 13.1599 6.16565 13.269 6.70893 13.269C6.98689 13.269 7.27433 13.2347 7.57124 13.1662C7.86815 13.0976 8.15243 12.9917 8.42407 12.8485C8.69571 12.7052 8.94524 12.5183 9.17267 12.2878C9.40009 12.0573 9.58329 11.7739 9.72227 11.4375L12.2618 12.9139C12.0597 13.3998 11.7596 13.8358 11.3616 14.2221C10.9636 14.6083 10.5056 14.9322 9.98759 15.1939C9.46958 15.4555 8.91998 15.6549 8.33879 15.7919C7.7576 15.929 7.18905 15.9975 6.63313 15.9975C5.66027 15.9975 4.76638 15.8013 3.95145 15.4088C3.13652 15.0163 2.4353 14.4962 1.8478 13.8483C1.26029 13.2004 0.805451 12.4654 0.483271 11.6431C0.16109 10.8208 0 9.98601 0 9.1388Z" fill="#4B4A5C"/>
<path d="M21.5106 2.61646H24.5618V15.8853H21.5106V10.9328C21.1316 11.0948 20.7241 11.2163 20.2882 11.2973C19.8523 11.3783 19.2869 11.4188 18.592 11.4188C17.796 11.4188 17.1264 11.3035 16.5831 11.073C16.0398 10.8425 15.5976 10.5217 15.2565 10.1106C14.9154 9.69941 14.6722 9.21662 14.5269 8.66219C14.3816 8.10777 14.3089 7.50662 14.3089 6.85875V2.61646H17.3602V5.92432C17.3602 6.83383 17.5244 7.50973 17.8529 7.95203C18.1814 8.39432 18.7752 8.61547 19.6344 8.61547C20.0387 8.61547 20.3988 8.58121 20.7146 8.51268C21.0305 8.44416 21.2958 8.3476 21.5106 8.22301V2.61646Z" fill="#4B4A5C"/>
<path d="M31.517 11.1197L37.8469 2.61646H40.1591V15.8853H37.051V7.5876L30.7969 15.8853H28.39V2.61646H31.517V11.1197Z" fill="#4B4A5C"/>
<path d="M54.1833 5.3076H50.0897V15.8853H46.9817V5.3076H42.8691V2.61646H54.1833V5.3076Z" fill="#4B4A5C"/>
<path d="M60.4936 2.61646H63.2984L68.2069 15.8853H65.023L63.9807 12.9138H59.7924L58.769 15.8853H55.5851L60.4936 2.61646ZM63.469 10.802L61.896 6.11121L60.2851 10.802H63.469Z" fill="#4B4A5C"/>
<path d="M73.8235 0H70.728V19H73.8235V0Z" fill="#4B4A5C"/>
<path d="M93.5935 2.61646H75.084V5.3076H93.5935V2.61646Z" fill="#807CCE"/>
<path d="M84.8252 7.88647H75.084V10.372H84.8252V7.88647Z" fill="#4B4A5C"/>
<path d="M100.081 13.1941H75.084V15.8852H100.081V13.1941Z" fill="#807CCE"/>
<path d="M113.054 5.3076H108.961V15.8853H105.853V5.3076H101.74V2.61646H113.054V5.3076Z" fill="#4B4A5C"/>
<path d="M114.93 9.1388C114.93 8.34142 115.081 7.54716 115.385 6.75601C115.688 5.96486 116.13 5.25781 116.711 4.63486C117.292 4.01191 118 3.50732 118.834 3.12109C119.668 2.73486 120.615 2.54175 121.677 2.54175C122.94 2.54175 124.036 2.80962 124.965 3.34535C125.893 3.88109 126.585 4.5788 127.04 5.43847L124.652 7.08306C124.5 6.73421 124.308 6.44454 124.074 6.21404C123.84 5.98355 123.584 5.79667 123.307 5.65339C123.029 5.51011 122.744 5.41044 122.454 5.35437C122.163 5.29831 121.879 5.27027 121.601 5.27027C121.007 5.27027 120.489 5.38863 120.047 5.62535C119.605 5.86208 119.238 6.16732 118.948 6.54109C118.657 6.91486 118.442 7.33847 118.303 7.81191C118.164 8.28535 118.095 8.76503 118.095 9.25093C118.095 9.77421 118.177 10.2788 118.341 10.7647C118.505 11.2506 118.742 11.6804 119.052 12.0542C119.361 12.428 119.734 12.7239 120.17 12.9419C120.606 13.1599 121.095 13.269 121.639 13.269C121.917 13.269 122.204 13.2347 122.501 13.1662C122.798 13.0976 123.082 12.9917 123.354 12.8485C123.626 12.7052 123.875 12.5183 124.102 12.2878C124.33 12.0573 124.513 11.7739 124.652 11.4375L127.192 12.9139C126.989 13.3998 126.689 13.8358 126.291 14.2221C125.893 14.6083 125.435 14.9322 124.917 15.1939C124.399 15.4555 123.85 15.6549 123.269 15.7919C122.687 15.929 122.119 15.9975 121.563 15.9975C120.59 15.9975 119.696 15.8013 118.881 15.4088C118.066 15.0163 117.365 14.4962 116.778 13.8483C116.19 13.2004 115.735 12.4654 115.413 11.6431C115.091 10.8208 114.93 9.98601 114.93 9.1388Z" fill="#4B4A5C"/>
<path d="M136.895 15.8853V11.101H135.284L132.287 15.8853H128.913L132.173 10.746C131.415 10.422 130.818 9.92055 130.382 9.24154C129.946 8.56252 129.728 7.76826 129.728 6.85875C129.728 6.26072 129.839 5.70629 130.06 5.19547C130.281 4.68465 130.584 4.23613 130.97 3.8499C131.355 3.46367 131.816 3.16154 132.353 2.9435C132.89 2.72547 133.481 2.61646 134.125 2.61646H140V15.8853H136.895ZM136.895 5.23285H134.526C134.324 5.23285 134.125 5.26711 133.929 5.33564C133.733 5.40416 133.557 5.50383 133.399 5.63465C133.241 5.76547 133.114 5.93367 133.02 6.13924C132.925 6.34482 132.877 6.58465 132.877 6.85875C132.877 7.40695 133.035 7.81498 133.351 8.08285C133.667 8.35072 134.046 8.48465 134.488 8.48465H136.895V5.23285Z" fill="#4B4A5C"/>
</g>
<defs>
<clipPath id="clip0">
<rect width="140" height="19" fill="white"/>
</clipPath>
</defs>
</svg>
