<svg width="48" height="48" viewBox="0 0 48 48" fill="none" xmlns="http://www.w3.org/2000/svg">
<path d="M20.2283 22.4783C20.2283 20.1311 22.1311 18.2283 24.4783 18.2283H32.1739C34.5211 18.2283 36.4239 20.1311 36.4239 22.4783V43.2717H20.2283V22.4783Z" stroke="#4B4A5C" stroke-width="1.5"/>
<path d="M20.2826 27.1304H13.8261C11.6169 27.1304 9.82607 28.9212 9.82607 31.1304V44.0217" stroke="#4B4A5C" stroke-width="1.5"/>
<line x1="5.75" y1="43.2717" x2="41.25" y2="43.2717" stroke="#4B4A5C" stroke-width="1.5" stroke-linecap="round"/>
<line x1="28.3804" y1="19.9457" x2="28.3804" y2="12.5979" stroke="#4B4A5C" stroke-width="1.5" stroke-linecap="round"/>
<path d="M32.4022 11.6095C32.4022 13.1206 31.9204 14.1797 31.2166 14.8618C30.5071 15.5496 29.5 15.9239 28.3261 15.9239C27.1522 15.9239 26.145 15.5496 25.4355 14.8618C24.7318 14.1797 24.25 13.1206 24.25 11.6095C24.25 10.5581 24.8437 9.16653 25.6967 7.75206C26.53 6.3704 27.532 5.0923 28.1914 4.30137L27.6154 3.8211L28.1914 4.30137C28.2332 4.25125 28.2819 4.23373 28.3261 4.23373C28.3703 4.23373 28.4189 4.25125 28.4607 4.30137C29.1201 5.0923 30.1222 6.3704 30.9555 7.75207C31.8085 9.16653 32.4022 10.5581 32.4022 11.6095Z" stroke="#4B4A5C" stroke-width="1.5"/>
<path d="M17.9239 22.2448C17.9239 23.1566 17.6269 23.7664 17.2176 24.1515C16.8002 24.5442 16.1924 24.7718 15.4565 24.7718C14.7206 24.7718 14.1128 24.5442 13.6954 24.1515C13.2862 23.7664 12.9891 23.1566 12.9891 22.2448C12.9891 21.6996 13.2893 20.9384 13.7903 20.095C14.2742 19.2806 14.8771 18.5003 15.3377 17.9469C15.376 17.901 15.419 17.8863 15.4565 17.8863C15.4941 17.8863 15.5371 17.901 15.5753 17.9469C16.036 18.5003 16.6389 19.2806 17.1227 20.095C17.6238 20.9384 17.9239 21.6996 17.9239 22.2448Z" stroke="#4B4A5C" stroke-width="1.5"/>
</svg>
