<svg width="48" height="48" viewBox="0 0 48 48" fill="none" xmlns="http://www.w3.org/2000/svg">
<path d="M9.08713 14.9523L26.2776 32.1427L28.9919 38.4761L22.6586 35.7618L5.46808 18.5713L9.08713 14.9523Z" stroke="#4B4A5C" stroke-width="1.5" stroke-miterlimit="10" stroke-linejoin="round"/>
<path d="M8.18226 14.9524L7.2775 14.0476C6.52655 13.2966 5.31417 13.2966 4.56321 14.0476C3.81226 14.7985 3.81226 16.0109 4.56321 16.7619L5.46798 17.6666" stroke="#4B4A5C" stroke-width="1.5" stroke-miterlimit="10" stroke-linejoin="round"/>
<path d="M25.3728 32.1429L22.6585 34.8572" stroke="#4B4A5C" stroke-width="1.5" stroke-miterlimit="10" stroke-linejoin="round"/>
<path d="M14.5156 16.7619V5H38.0394L43.468 10.4286V43H14.5156V31.2381" stroke="#4B4A5C" stroke-width="1.5" stroke-miterlimit="10" stroke-linecap="round" stroke-linejoin="round"/>
<path d="M32.6109 33.9524L34.4204 35.762L38.0394 31.2382" stroke="#4B4A5C" stroke-width="1.5" stroke-miterlimit="10" stroke-linecap="round" stroke-linejoin="round"/>
<path d="M32.6109 25.8095L34.4204 27.619L38.0394 23.0952" stroke="#4B4A5C" stroke-width="1.5" stroke-miterlimit="10" stroke-linecap="round" stroke-linejoin="round"/>
<path d="M32.6109 17.6666L34.4204 19.4761L38.0394 14.9523" stroke="#4B4A5C" stroke-width="1.5" stroke-miterlimit="10" stroke-linecap="round" stroke-linejoin="round"/>
<path d="M21.7537 14.9523H28.0871" stroke="#4B4A5C" stroke-width="1.5" stroke-miterlimit="10" stroke-linecap="round" stroke-linejoin="round"/>
<path d="M21.7537 18.5714H25.3728" stroke="#4B4A5C" stroke-width="1.5" stroke-miterlimit="10" stroke-linecap="round" stroke-linejoin="round"/>
<path d="M21.7537 22.1904H28.0871" stroke="#4B4A5C" stroke-width="1.5" stroke-miterlimit="10" stroke-linecap="round" stroke-linejoin="round"/>
</svg>
