<svg width="48" height="48" viewBox="0 0 48 48" fill="none" xmlns="http://www.w3.org/2000/svg">
<path d="M46.0554 43.85H2.89104C2.47739 43.85 2.14166 43.5142 2.14166 43.1006C2.14166 42.6869 2.47739 42.3512 2.89104 42.3512H46.0554C46.4691 42.3512 46.8048 42.6869 46.8048 43.1006C46.8048 43.5142 46.4691 43.85 46.0554 43.85Z" fill="#4B4A5C"/>
<path d="M41.5699 43.748C41.1563 43.748 40.8205 43.4123 40.8205 42.9987V20.731L23.0262 9.81803V32.7521C23.0262 33.1658 22.6905 33.5015 22.2768 33.5015H9.34551C8.93185 33.5015 8.59613 33.1658 8.59613 32.7521C8.59613 32.3385 8.93185 32.0027 9.34551 32.0027H21.5285V8.47914C21.5285 8.20736 21.6753 7.95757 21.9121 7.82568C22.1489 7.69279 22.4387 7.69878 22.6695 7.84066L41.9626 19.6739C42.1844 19.8098 42.3203 20.0516 42.3203 20.3124V42.9997C42.3193 43.4123 41.9836 43.748 41.5699 43.748Z" fill="#4B4A5C"/>
<path d="M46.3141 20.8829C46.1762 20.8829 46.0363 20.845 45.9104 20.765L21.8733 5.38072C21.5246 5.1579 21.4227 4.69429 21.6465 4.34557C21.8693 3.99686 22.3329 3.89494 22.6816 4.11876L46.7188 19.5031C47.0675 19.7259 47.1694 20.1895 46.9456 20.5382C46.8027 20.76 46.5609 20.8829 46.3141 20.8829Z" fill="#4B4A5C"/>
<path d="M6.49383 43.6832C6.08017 43.6832 5.74445 43.3474 5.74445 42.9338V24.7718C5.74445 24.516 5.87434 24.2782 6.09016 24.1403L21.7423 14.1275C22.091 13.9047 22.5546 14.0066 22.7774 14.3554C23.0002 14.7041 22.8983 15.1677 22.5496 15.3905L7.24321 25.1824V42.9338C7.24321 43.3474 6.90849 43.6832 6.49383 43.6832Z" fill="#4B4A5C"/>
<path d="M1.74987 25.3423C1.50707 25.3423 1.26927 25.2244 1.12539 25.0075C0.896575 24.6628 0.989501 24.1982 1.33422 23.9684L21.5046 10.5495C21.8493 10.3206 22.3139 10.4136 22.5437 10.7583C22.7725 11.103 22.6796 11.5676 22.3349 11.7974L2.16453 25.2164C2.03664 25.3013 1.89275 25.3423 1.74987 25.3423Z" fill="#4B4A5C"/>
<path d="M36.2964 43.7481H31.923C31.5093 43.7481 31.1736 43.4123 31.1736 42.9987V34.7825C31.1736 34.3688 31.5093 34.0331 31.923 34.0331H36.2964C36.71 34.0331 37.0457 34.3688 37.0457 34.7825V42.9987C37.0457 43.4123 36.71 43.7481 36.2964 43.7481ZM32.6723 42.2493H35.547V35.5318H32.6723V42.2493Z" fill="#4B4A5C"/>
<path d="M31.923 43.7481H27.5507C27.137 43.7481 26.8013 43.4123 26.8013 42.9987V34.7825C26.8013 34.3688 27.137 34.0331 27.5507 34.0331H31.924C32.3377 34.0331 32.6734 34.3688 32.6734 34.7825V42.9987C32.6724 43.4123 32.3377 43.7481 31.923 43.7481ZM28.3 42.2493H31.1747V35.5318H28.3V42.2493Z" fill="#4B4A5C"/>
<path d="M30.2933 30.2843H25.9199C25.5063 30.2843 25.1705 29.9485 25.1705 29.5349V25.1775C25.1705 24.7638 25.5063 24.4281 25.9199 24.4281H30.2933C30.707 24.4281 31.0427 24.7638 31.0427 25.1775V29.5349C31.0427 29.9485 30.707 30.2843 30.2933 30.2843ZM26.6693 28.7855H29.5439V25.9269H26.6693V28.7855Z" fill="#4B4A5C"/>
<path d="M16.8595 30.2843H12.4861C12.0724 30.2843 11.7367 29.9485 11.7367 29.5349V25.1775C11.7367 24.7638 12.0724 24.4281 12.4861 24.4281H16.8595C17.2731 24.4281 17.6088 24.7638 17.6088 25.1775V29.5349C17.6088 29.9485 17.2731 30.2843 16.8595 30.2843ZM13.2355 28.7855H16.1101V25.9269H13.2355V28.7855Z" fill="#4B4A5C"/>
<path d="M37.8871 30.2843H33.5137C33.1 30.2843 32.7643 29.9485 32.7643 29.5349V25.1775C32.7643 24.7638 33.1 24.4281 33.5137 24.4281H37.8871C38.3007 24.4281 38.6364 24.7638 38.6364 25.1775V29.5349C38.6364 29.9485 38.3007 30.2843 37.8871 30.2843ZM34.263 28.7855H37.1377V25.9269H34.263V28.7855Z" fill="#4B4A5C"/>
<path d="M19.9268 43.2005C19.5132 43.2005 19.1774 42.8648 19.1774 42.4512V32.7591C19.1774 32.3455 19.5132 32.0098 19.9268 32.0098C20.3405 32.0098 20.6762 32.3455 20.6762 32.7591V42.4512C20.6762 42.8648 20.3405 43.2005 19.9268 43.2005Z" fill="#4B4A5C"/>
<path d="M10.7345 43.2005C10.3208 43.2005 9.98511 42.8648 9.98511 42.4512V32.7591C9.98511 32.3455 10.3208 32.0098 10.7345 32.0098C11.1481 32.0098 11.4839 32.3455 11.4839 32.7591V42.4512C11.4839 42.8648 11.1481 43.2005 10.7345 43.2005Z" fill="#4B4A5C"/>
</svg>
