<svg width="16" height="20" viewBox="0 0 16 20" fill="none" xmlns="http://www.w3.org/2000/svg">
<path fill-rule="evenodd" clip-rule="evenodd" d="M8 19.75C8 19.75 15.5 14.5 15.5 7.75C15.5 5.76088 14.7098 3.85322 13.3033 2.4467C11.8968 1.04018 9.98912 0.25 8 0.25C6.01088 0.25 4.10322 1.04018 2.6967 2.4467C1.29018 3.85322 0.5 5.76088 0.5 7.75C0.5 14.5 8 19.75 8 19.75ZM11 7.75C11 9.40685 9.65685 10.75 8 10.75C6.34315 10.75 5 9.40685 5 7.75C5 6.09315 6.34315 4.75 8 4.75C9.65685 4.75 11 6.09315 11 7.75Z" fill="#6864B2"/>
</svg>
