<svg width="1440" height="207" viewBox="0 0 1440 207" fill="none" xmlns="http://www.w3.org/2000/svg">
<path d="M0 110.5C0 110.5 491 110.5 582 110.5C673 110.5 671.5 69.9693 711 73.9999C750.5 78.0306 760 152.5 819.5 149.999C885.941 147.207 885.5 13.0002 939 13.0002C1002 13.0002 987.329 149.999 1062 149.999C1117 149.999 1122.5 102 1202 102C1325 102 1400 102 1443 102" stroke="#807CCE" stroke-width="1.5"/>
<path d="M0 110.5C0 110.5 487 110.5 582 110.5C677 110.5 707 102.5 746.5 99.0003C786 95.5001 808.5 150.501 868 148C934.441 145.208 958.293 76.4996 997 76.4998C1023 76.4998 1016.29 84.5488 1090 96.4999C1108.5 99.4995 1122.5 102 1202 102C1325 102 1400 102 1443 102" stroke="#46438C" stroke-width="1.5"/>
<path d="M0 110.499C0 110.499 491 110.499 582 110.499C673 110.499 699 122.97 738.5 127C778 131.031 808.566 71.5002 857.5 71.5C914.5 71.4997 906.975 122.686 988.5 131.5C1062.5 139.5 1077.81 102 1121 102C1166.5 102 1122.5 102 1202 102C1325 102 1400 102 1443 102" stroke="#C9C4E8" stroke-width="1.5"/>
<path d="M0 110.501C0 110.501 491 110.501 582 110.501C673 110.501 664.5 124 705 136.5C745.5 149 777 58 817.5 51.5009C883.16 40.9643 896.5 205.5 958 205.5C1009.5 205.5 1003.72 64.9495 1073.5 70.5002C1117.5 74.0002 1122.5 102.001 1202 102.001C1325 102.001 1400 102.001 1443 102.001" stroke="#6864B3" stroke-width="1.5"/>
</svg>
